<svg width="39" height="41" viewBox="0 0 39 41" fill="none" xmlns="http://www.w3.org/2000/svg">
<g id="facebook" clip-path="url(#clip0_231_45)">
<path id="Vector" d="M37.7322 20.435C37.7322 9.70468 29.4369 1.01074 19.1985 1.01074C8.96019 1.01074 0.664886 9.70468 0.664886 20.435C0.664886 30.13 7.44237 38.166 16.3027 39.6244V26.0501H11.5945V20.435H16.3027V16.1554C16.3027 11.2876 19.0678 8.59875 23.3028 8.59875C25.3311 8.59875 27.452 8.97784 27.452 8.97784V13.7556H25.1144C22.8126 13.7556 22.0944 15.2531 22.0944 16.7891V20.435H27.2345L26.4125 26.0501H22.0944V39.6244C30.9547 38.166 37.7322 30.13 37.7322 20.435Z" fill="#4867AA"/>
</g>
<defs>
<clipPath id="clip0_231_45">
<rect width="38.263" height="40.1018" fill="white" transform="translate(0.0670166 0.384155)"/>
</clipPath>
</defs>
</svg>
