<svg width="23" height="19" viewBox="0 0 23 19" fill="none" xmlns="http://www.w3.org/2000/svg">
<path d="M11.414 0.898438C5.10872 0.898438 6.10352e-05 4.95072 6.10352e-05 9.95218C6.10352e-05 14.9536 5.10872 19.0059 11.414 19.0059C17.7193 19.0059 22.8279 14.9536 22.8279 9.95218C22.8279 4.95072 17.7193 0.898438 11.414 0.898438ZM11.414 17.2536C6.32835 17.2536 2.20921 13.9862 2.20921 9.95218C2.20921 5.91815 6.32835 2.65077 11.414 2.65077C16.4996 2.65077 20.6188 5.91815 20.6188 9.95218C20.6188 13.9862 16.4996 17.2536 11.414 17.2536ZM14.2583 13.4422L10.3508 11.1898C10.2082 11.1058 10.1253 10.9744 10.1253 10.8356V4.84119C10.1253 4.60025 10.3738 4.40311 10.6776 4.40311H12.1504C12.4541 4.40311 12.7027 4.60025 12.7027 4.84119V10.0142L15.7771 11.7885C16.0256 11.9309 16.0762 12.2047 15.8967 12.4018L15.0315 13.3473C14.852 13.5408 14.5068 13.5846 14.2583 13.4422Z" fill="#B6B3B3"/>
</svg>
