<svg width="69" height="52" viewBox="0 0 69 52" fill="none" xmlns="http://www.w3.org/2000/svg">
<g id="&#240;&#159;&#166;&#134; icon &#34;Tablets&#34;">
<path id="Vector" d="M17.3354 20.016C8.73977 20.016 1.70214 25.8427 0.387884 33.4323C0.303093 33.9104 0.737645 34.3586 1.26759 34.3586H33.4139C33.9438 34.3586 34.3783 33.9104 34.2936 33.4323C32.9687 25.8427 25.9311 20.016 17.3354 20.016ZM33.4033 37.5459H1.26759C0.737645 37.5459 0.303093 37.9941 0.387884 38.4721C1.70214 46.0618 8.73977 51.8884 17.3354 51.8884C25.9311 51.8884 32.9687 46.0618 34.283 38.4721C34.3677 37.9941 33.9332 37.5459 33.4033 37.5459ZM63.2708 5.53398C57.2824 -0.0934909 47.9872 -0.581537 41.3418 3.94036C40.9178 4.22921 40.886 4.82682 41.257 5.16546L63.6523 26.2212C64.0233 26.5698 64.6592 26.5399 64.956 26.1415C69.7785 19.8965 69.2591 11.1615 63.2708 5.53398ZM38.8511 7.43637C38.4801 7.08776 37.8442 7.11765 37.5474 7.51605C32.7355 13.7611 33.2549 22.4961 39.2326 28.1236C45.221 33.751 54.5161 34.2391 61.1616 29.7072C61.5856 29.4184 61.6173 28.8208 61.2464 28.4821L38.8511 7.43637Z" fill="white"/>
</g>
</svg>
