<svg width="39" height="39" viewBox="0 0 39 39" fill="none" xmlns="http://www.w3.org/2000/svg">
<g id="&#240;&#159;&#166;&#134; icon &#34;plus&#34;">
<path id="Vector" d="M35.8243 15.1564H23.4236V2.75571C23.4236 1.23404 22.1895 0 20.6679 0H17.9121C16.3905 0 15.1564 1.23404 15.1564 2.75571V15.1564H2.75571C1.23404 15.1564 0 16.3905 0 17.9121V20.6679C0 22.1895 1.23404 23.4236 2.75571 23.4236H15.1564V35.8243C15.1564 37.346 16.3905 38.58 17.9121 38.58H20.6679C22.1895 38.58 23.4236 37.346 23.4236 35.8243V23.4236H35.8243C37.346 23.4236 38.58 22.1895 38.58 20.6679V17.9121C38.58 16.3905 37.346 15.1564 35.8243 15.1564Z" fill="#6D6C6C"/>
</g>
</svg>
