<svg width="35" height="34" viewBox="0 0 35 34" fill="none" xmlns="http://www.w3.org/2000/svg">
<g id="&#240;&#159;&#166;&#134; icon &#34;User Circle&#34;">
<path id="Vector" d="M17.5 0.43203C7.83266 0.43203 0 7.86545 0 17.04C0 26.2146 7.83266 33.648 17.5 33.648C27.1673 33.648 35 26.2146 35 17.04C35 7.86545 27.1673 0.43203 17.5 0.43203ZM17.5 6.86094C20.9294 6.86094 23.7097 9.49947 23.7097 12.7541C23.7097 16.0087 20.9294 18.6473 17.5 18.6473C14.0706 18.6473 11.2903 16.0087 11.2903 12.7541C11.2903 9.49947 14.0706 6.86094 17.5 6.86094ZM17.5 29.8978C13.3579 29.8978 9.64617 28.1165 7.1623 25.3306C8.48891 22.96 11.0857 21.326 14.1129 21.326C14.2823 21.326 14.4516 21.3528 14.6139 21.3996C15.5312 21.6809 16.4909 21.8617 17.5 21.8617C18.5091 21.8617 19.4758 21.6809 20.3861 21.3996C20.5484 21.3528 20.7177 21.326 20.8871 21.326C23.9143 21.326 26.5111 22.96 27.8377 25.3306C25.3538 28.1165 21.6421 29.8978 17.5 29.8978Z" fill="#972376"/>
</g>
</svg>
