<svg width="64" height="50" viewBox="0 0 64 50" fill="none" xmlns="http://www.w3.org/2000/svg">
<g id="&#240;&#159;&#166;&#134; icon &#34;Capsules&#34;">
<path id="Vector" d="M61.7003 30.0859L47.1335 9.35777C44.6557 5.83852 40.7113 3.95716 36.7113 3.95716C34.2001 3.95716 31.6557 4.69863 29.4335 6.24799C27.2446 7.77521 25.689 9.87791 24.8223 12.2019C24.5001 5.63932 19.1112 0.415771 12.4445 0.415771C5.56669 0.415771 0 5.96025 0 12.8106V37.6003C0 44.4507 5.56669 49.9952 12.4445 49.9952C19.3223 49.9952 24.889 44.4507 24.889 37.6003V21.0997C25.2557 22.0514 25.7001 22.9921 26.3112 23.8664L40.8891 44.5946C43.3557 48.1138 47.3002 49.9952 51.3113 49.9952C53.8336 49.9952 56.3669 49.2537 58.5891 47.7043C64.3336 43.6981 65.7225 35.8075 61.7003 30.0859ZM17.7779 25.2055H7.11114V12.8106C7.11114 9.87791 9.50004 7.49854 12.4445 7.49854C15.389 7.49854 17.7779 9.87791 17.7779 12.8106V25.2055ZM39.4224 30.1745L32.1335 19.8049C31.2779 18.5875 30.9446 17.1046 31.2112 15.6437C31.4668 14.1829 32.289 12.8992 33.5113 12.047C34.4557 11.383 35.5668 11.0399 36.7113 11.0399C38.5446 11.0399 40.2557 11.9253 41.3002 13.4193L48.5891 23.7889L39.4224 30.1745Z" fill="white"/>
</g>
</svg>
