<svg width="22" height="21" viewBox="0 0 22 21" fill="none" xmlns="http://www.w3.org/2000/svg">
<path d="M19.7415 7.92692H12.9079V1.44166C12.9079 0.645862 12.2279 0.000488281 11.3893 0.000488281H9.87078C9.03224 0.000488281 8.3522 0.645862 8.3522 1.44166V7.92692H1.51863C0.680096 7.92692 6.10352e-05 8.57229 6.10352e-05 9.36808V10.8093C6.10352e-05 11.605 0.680096 12.2504 1.51863 12.2504H8.3522V18.7357C8.3522 19.5315 9.03224 20.1768 9.87078 20.1768H11.3893C12.2279 20.1768 12.9079 19.5315 12.9079 18.7357V12.2504H19.7415C20.58 12.2504 21.2601 11.605 21.2601 10.8093V9.36808C21.2601 8.57229 20.58 7.92692 19.7415 7.92692Z" fill="#B6B3B3"/>
</svg>
