<svg width="39" height="41" viewBox="0 0 39 41" fill="none" xmlns="http://www.w3.org/2000/svg">
<g id="instagram" clip-path="url(#clip0_231_43)">
<path id="Vector" d="M19.202 11.4278C13.77 11.4278 9.38859 15.4458 9.38859 20.4272C9.38859 25.4086 13.77 29.4266 19.202 29.4266C24.634 29.4266 29.0155 25.4086 29.0155 20.4272C29.0155 15.4458 24.634 11.4278 19.202 11.4278ZM19.202 26.278C15.6917 26.278 12.822 23.6542 12.822 20.4272C12.822 17.2003 15.6832 14.5764 19.202 14.5764C22.7209 14.5764 25.582 17.2003 25.582 20.4272C25.582 23.6542 22.7123 26.278 19.202 26.278ZM31.7058 11.0597C31.7058 12.2267 30.6809 13.1588 29.4169 13.1588C28.1443 13.1588 27.1279 12.2189 27.1279 11.0597C27.1279 9.90052 28.1528 8.96063 29.4169 8.96063C30.6809 8.96063 31.7058 9.90052 31.7058 11.0597ZM38.2054 13.1901C38.0602 10.3783 37.3599 7.88759 35.1136 5.83551C32.8759 3.78343 30.1599 3.14117 27.0938 3.00019C23.9337 2.83571 14.4619 2.83571 11.3017 3.00019C8.24411 3.13334 5.52812 3.7756 3.28188 5.82768C1.03564 7.87976 0.343826 10.3705 0.190091 13.1823C0.010733 16.0803 0.010733 24.7664 0.190091 27.6643C0.335285 30.4762 1.03564 32.9669 3.28188 35.019C5.52812 37.071 8.23557 37.7133 11.3017 37.8543C14.4619 38.0188 23.9337 38.0188 27.0938 37.8543C30.1599 37.7211 32.8759 37.0789 35.1136 35.019C37.3513 32.9669 38.0517 30.4762 38.2054 27.6643C38.3848 24.7664 38.3848 16.0881 38.2054 13.1901ZM34.1229 30.7738C33.4567 32.3089 32.167 33.4916 30.4845 34.1104C27.9649 35.0268 21.9863 34.8153 19.202 34.8153C16.4177 34.8153 10.4306 35.019 7.91956 34.1104C6.24555 33.4995 4.95589 32.3168 4.28116 30.7738C3.28188 28.4633 3.51248 22.9806 3.51248 20.4272C3.51248 17.8739 3.29042 12.3834 4.28116 10.0807C4.94735 8.54551 6.23701 7.36283 7.91956 6.74407C10.4391 5.82768 16.4177 6.03915 19.202 6.03915C21.9863 6.03915 27.9735 5.83551 30.4845 6.74407C32.1585 7.35499 33.4482 8.53768 34.1229 10.0807C35.1222 12.3912 34.8916 17.8739 34.8916 20.4272C34.8916 22.9806 35.1222 28.4711 34.1229 30.7738Z" fill="#D7407C"/>
</g>
<defs>
<clipPath id="clip0_231_43">
<rect width="38.263" height="40.1018" fill="white" transform="translate(0.0621338 0.384155)"/>
</clipPath>
</defs>
</svg>
