<svg width="102" height="121" viewBox="0 0 102 121" fill="none" xmlns="http://www.w3.org/2000/svg">
<rect x="2.5" y="2.5" width="97" height="96.0599" rx="17.5" fill="white" stroke="#972376" stroke-width="5"/>
<path d="M37.3886 93.4014L24.6407 114.986L12.1198 93.2493L37.3886 93.4014Z" fill="white" stroke="#972376" stroke-width="5"/>
<path d="M8 87H42V96H17C12.0294 96 8 91.9706 8 87Z" fill="white"/>
<path d="M51 50.53H85.2742C85.2742 55.722 81.0653 59.9309 75.8733 59.9309H51V50.53Z" fill="#06BA06"/>
<path d="M51 50.53H60.3226V77.9298C60.3226 83.0785 56.1487 87.2523 51 87.2523V50.53Z" fill="#06BA06"/>
<path d="M51 66.1003H75.6774C75.6774 70.8055 71.8631 74.6199 67.1578 74.6199H51V66.1003Z" fill="#06BA06"/>
<path d="M46.3226 48.7223L37 48.7223L37 21.3225C37 16.1738 41.1739 12 46.3226 12L46.3226 48.7223Z" fill="#06BA06"/>
<path d="M11.7903 50.53C11.7903 45.1757 16.1308 40.8353 21.485 40.8353H46.0645V50.53H11.7903Z" fill="#06BA06"/>
<path d="M25.5 34.9597C25.5 30.7412 28.9198 27.3214 33.1382 27.3214H46.0645V34.9597H25.5Z" fill="#06BA06"/>
<path d="M48.6349 61.3622C46.9285 61.3622 45.4555 61.0563 44.2159 60.4446C42.9763 59.8329 42.0225 59.0038 41.3544 57.9574C40.6944 56.9029 40.3643 55.7277 40.3643 54.4318C40.3643 53.4659 40.5575 52.6087 40.9439 51.8601C41.3303 51.1115 41.8696 50.4233 42.5618 49.7955C43.254 49.1596 44.0589 48.5277 44.9766 47.8999L49.7699 44.7486C50.3897 44.3542 50.8445 43.9396 51.1342 43.505C51.424 43.0623 51.5689 42.5833 51.5689 42.0682C51.5689 41.5772 51.3717 41.1224 50.9773 40.7038C50.5829 40.2853 50.0234 40.08 49.299 40.0881C48.8161 40.0881 48.3975 40.1967 48.0433 40.4141C47.6892 40.6233 47.4115 40.901 47.2102 41.2472C47.017 41.5852 46.9205 41.9635 46.9205 42.3821C46.9205 42.8973 47.0653 43.4205 47.3551 43.9517C47.6449 44.483 48.0313 45.0464 48.5142 45.642C48.9972 46.2296 49.5244 46.8655 50.0959 47.5497L61.8196 61H56.4588L46.679 50.1094C46.035 49.3769 45.3911 48.6122 44.7472 47.8153C44.1113 47.0104 43.58 46.1572 43.1534 45.2557C42.7268 44.3461 42.5135 43.3601 42.5135 42.2976C42.5135 41.0982 42.7912 40.0196 43.3466 39.0618C43.91 38.1039 44.6989 37.3473 45.7131 36.7919C46.7273 36.2285 47.9105 35.9467 49.2628 35.9467C50.5829 35.9467 51.7218 36.2164 52.6797 36.7557C53.6456 37.2869 54.3861 37.9953 54.9013 38.8807C55.4245 39.758 55.6861 40.724 55.6861 41.7784C55.6861 42.9455 55.3963 44.004 54.8168 44.9538C54.2453 45.8956 53.4403 46.7408 52.402 47.4893L47.3551 51.1236C46.6709 51.6226 46.1638 52.1338 45.8338 52.657C45.5118 53.1721 45.3509 53.6671 45.3509 54.142C45.3509 54.7296 45.4957 55.2569 45.7855 55.7237C46.0753 56.1906 46.4858 56.5608 47.017 56.8345C47.5483 57.1001 48.1721 57.233 48.8885 57.233C49.7578 57.233 50.6151 57.0357 51.4602 56.6413C52.3134 56.2389 53.0862 55.6714 53.7784 54.9389C54.4787 54.1984 55.0381 53.321 55.4567 52.3068C55.8752 51.2926 56.0845 50.1697 56.0845 48.9382H60.3466C60.3466 50.4515 60.1816 51.8158 59.8516 53.0312C59.5215 54.2386 59.0627 55.2931 58.4751 56.1946C57.8875 57.0881 57.2154 57.8205 56.4588 58.392C56.2173 58.545 55.9839 58.6899 55.7585 58.8267C55.5331 58.9635 55.2997 59.1084 55.0582 59.2614C54.1406 60.0019 53.1143 60.5372 51.9794 60.8672C50.8525 61.1972 49.7377 61.3622 48.6349 61.3622Z" fill="#972376"/>
</svg>
